<?xml version="1.0" encoding="iso-8859-1"?>
<!DOCTYPE svg PUBLIC "-//W3C//DTD SVG 1.1//EN" "http://www.w3.org/Graphics/SVG/1.1/DTD/svg11.dtd">

<svg fill="#000000" height="800px" width="800px" version="1.1" id="Capa_1" xmlns="http://www.w3.org/2000/svg" xmlns:xlink="http://www.w3.org/1999/xlink" 
	 viewBox="0 0 297 297" xml:space="preserve">
<g>
	<path d="M115.546,79.18c-7.17,4.444-13.962,9.812-20.169,16.02c-6.277,6.278-11.606,13.085-15.991,20.195l102.243,102.249
		c7.169-4.443,13.962-9.811,20.168-16.018c6.277-6.278,11.606-13.085,15.991-20.194L115.546,79.18z M130.648,130.763
		c-1.495,1.495-3.572,2.358-5.678,2.358c-2.107,0-4.183-0.863-5.678-2.358c-1.495-1.494-2.347-3.561-2.347-5.677
		c0-2.107,0.852-4.174,2.347-5.669c1.495-1.495,3.571-2.357,5.678-2.357c2.106,0,4.174,0.862,5.678,2.357
		c1.494,1.495,2.347,3.561,2.347,5.669C132.995,127.202,132.142,129.269,130.648,130.763z M154.053,154.179
		c-1.495,1.494-3.562,2.347-5.678,2.347c-2.107,0-4.174-0.853-5.669-2.347c-1.495-1.495-2.357-3.562-2.357-5.678
		c0-2.117,0.862-4.183,2.357-5.678c1.495-1.495,3.561-2.347,5.669-2.347c2.116,0,4.183,0.852,5.678,2.347
		c1.494,1.495,2.347,3.571,2.347,5.678C156.4,150.616,155.547,152.684,154.053,154.179z M177.468,177.584
		c-1.495,1.494-3.572,2.347-5.678,2.347c-2.117,0-4.183-0.853-5.678-2.347c-1.495-1.495-2.347-3.562-2.347-5.678
		c0-2.107,0.852-4.174,2.347-5.669c1.495-1.495,3.561-2.347,5.678-2.347c2.116,0,4.183,0.852,5.678,2.347
		c1.484,1.495,2.347,3.561,2.347,5.669C179.815,174.021,178.952,176.089,177.468,177.584z"/>
	<path d="M166.64,225.354l-94.932-94.937c-8.039,19.523-9.375,40.122-3.589,57.83c-3.645-0.707-7.423-1.077-11.295-1.077
		c-19.344,0-39.194,8.758-54.46,24.026c-1.957,1.957-2.768,4.785-2.145,7.481c0.623,2.697,2.592,4.883,5.209,5.782l25.56,8.793
		l2.495,23.159c0.405,3.751,3.368,6.715,7.12,7.119l23.153,2.493l8.79,25.56c0.9,2.618,3.086,4.587,5.783,5.21
		c0.6,0.138,1.205,0.206,1.807,0.206c2.104,0,4.153-0.829,5.675-2.351c19.027-19.029,26.978-44.295,22.897-65.753
		c7.224,2.391,15.013,3.644,23.126,3.644C143.513,232.54,155.341,230.043,166.64,225.354z"/>
	<path d="M296.781,78.323c-0.623-2.697-2.592-4.883-5.209-5.783l-25.561-8.792l-2.495-23.161c-0.405-3.752-3.368-6.716-7.12-7.119
		l-23.152-2.493l-8.79-25.559c-0.9-2.618-3.086-4.587-5.783-5.21c-2.697-0.621-5.525,0.188-7.482,2.146
		c-18.956,18.958-26.915,44.104-22.941,65.511c-7.163-2.345-14.877-3.577-22.909-3.577c-11.677,0-23.505,2.497-34.804,7.185
		l94.933,94.94c8.006-19.439,9.368-39.946,3.668-57.602c3.566,0.674,7.258,1.023,11.04,1.023c19.343,0,39.194-8.758,54.461-24.026
		C296.593,83.848,297.404,81.02,296.781,78.323z"/>
</g>
</svg>