<?xml version="1.0" encoding="utf-8"?>
<!-- Generator: Adobe Adobe Illustrator 29.1.0, SVG Export Plug-In . SVG Version: 6.00 Build 0)  -->
<svg version="1.1" id="Layer_1" xmlns="http://www.w3.org/2000/svg" xmlns:xlink="http://www.w3.org/1999/xlink" x="0px" y="0px"
	 width="500px" height="500px" viewBox="0 0 500 500" style="enable-background:new 0 0 500 500;" xml:space="preserve">
<g>
	<g>
		<path fill="white" d="M249.38,420.48c-17.55-0.36-32.59-5.83-45.61-15.93c-4.73-3.67-9.25-7.56-14.04-11.49c-16.06,16.2-35.05,27.4-60.51,27.54
			c-1.13-3.6-2.19-7.03-3.28-10.45c-3.37-10.57-6.82-21.11-10.11-31.7c-5.11-16.43-10.13-32.89-15.14-49.35
			c-2.7-8.87,2.85-16.37,12.69-18.12c5.13-0.91,10.08-2.74,14.99-4.44c0.83-0.29,1.47-2.02,1.48-3.08
			c0.1-11.79,0.07-23.57,0.07-35.36c0-7.86-0.03-15.72,0.01-23.57c0.08-16.84,13.19-28.82,31.66-28.89
			c12.97-0.05,25.94-0.01,38.9-0.01c1.29,0,2.57,0,4.19,0c0-13.73,0-27.09,0-40.62c30.08,0,59.82,0,89.91,0c0,13.35,0,26.71,0,40.45
			c1.59,0.06,2.85,0.16,4.11,0.16c13.09,0.01,26.18-0.01,39.27,0.01c19.25,0.03,32.25,11.82,32.28,29.33
			c0.03,19.32,0.06,38.64-0.05,57.95c-0.01,2.44,0.59,3.71,3.37,4.35c5.2,1.19,10.29,2.75,15.44,4.13
			c8.11,2.17,12.76,9.56,10.38,17.32c-4.53,14.79-9.45,29.49-14.02,44.28c-4.6,14.87-8.98,29.79-13.47,44.69
			c-0.25,0.84-0.56,1.67-0.99,2.91c-25.24-0.04-44.32-11.23-60.71-27.78C293.79,409.02,274.99,420.64,249.38,420.48z M145.8,374.68
			c1.4,4.33,2.79,8.66,4.27,13.25c17.13-8.93,26.5-24.3,40.15-36.14c4.87,5.04,9.85,10.14,14.75,15.3
			c7.07,7.43,14.06,14.83,23.36,20.22c9.94,5.76,20.55,7.13,31.7,4.77c7.45-1.57,14.08-5.25,19.5-10.07
			c7.16-6.36,13.72-13.27,20.49-19.99c3.39-3.37,6.66-6.85,9.93-10.22c13.67,11.9,23.01,27.4,40.13,36.41
			c5.46-18.18,10.82-36.06,16.25-54.13c-4.73-1.53-9.42-3.14-14.18-4.55c-21.84-6.47-43.71-12.85-65.54-19.33
			c-11.39-3.38-22.71-6.94-34.09-10.32c-1.28-0.38-2.89-0.56-4.14-0.21c-14.17,3.95-28.35,7.9-42.44,12.08
			c-15.83,4.69-31.58,9.59-47.35,14.43c-8.36,2.56-16.7,5.17-24.84,7.69C137.79,347.53,141.72,360.84,145.8,374.68z M166.88,242.96
			c-2.23,0-4.46,0-6.74,0c0,18.21,0,35.97,0,53.89c0.97-0.2,1.79-0.3,2.57-0.53c15.72-4.61,31.44-9.19,47.13-13.87
			c12.52-3.73,24.98-7.62,37.52-11.29c1.67-0.49,3.79-0.47,5.49-0.02c5.16,1.38,10.2,3.15,15.32,4.67
			c20.03,5.93,40.08,11.81,60.12,17.72c3.84,1.13,7.68,2.29,11.64,3.46c0-18.18,0-36.01,0-54.04
			C282.32,242.96,224.95,242.96,166.88,242.96z M234.95,211.79c0,1.17,0,2.34,0,3.62c10.24,0,20.1,0,30.08,0c0-4.61,0-9.02,0-13.53
			c-10.06,0-19.93,0-30.08,0C234.95,205.09,234.95,208.12,234.95,211.79z"/>
		<path fill="white" d="M200.97,435.65c19.37,9.92,39.91,13.39,61.62,11.03c16.36-1.78,31.31-7.14,44.89-15.59c2-1.25,3.33-1.26,5.33,0
			c13.21,8.3,27.76,13.68,43.63,15.99c1.65,0.24,3.35,0.25,5.02,0.25c12.71,0.02,25.42,0.01,38.41,0.01c0,9.17,0,18.14,0,27.34
			c-1.05,0.06-2.1,0.16-3.14,0.16c-8.76,0.01-17.54-0.21-26.29,0.05c-20.15,0.6-38.95-3.93-56.85-11.96
			c-2.37-1.06-4.18-1.19-6.64-0.1c-31.84,14.1-64.67,15.78-98.24,5.91c-5.45-1.6-10.55-4.15-15.92-5.99
			c-1.56-0.54-3.82-0.72-5.24-0.09c-13.92,6.18-28.51,10.21-43.87,11.95c-0.36,0.04-0.71,0.12-1.07,0.12
			c-14.03,0.01-28.05,0.01-42.34,0.01c0-9.09,0-18.07,0-27.4c1.96,0,3.85,0,5.73,0c7.32,0,14.67-0.31,21.97,0.06
			c21.78,1.11,41.01-5.3,58.91-15.9c1-0.59,2-1.2,3.03-1.81C193.55,431.65,197.14,433.6,200.97,435.65z"/>
	</g>
</g>
<g>
	<path fill="white" d="M296.66,73.85c8.96-11.67,6.29-44.99,6.29-44.99c-5.48,3.48-11.56,6-17.95,7.43c-10.65,2.57-20.41,5.61-25.44,12.1
		c-7.62,10.01-7.96,22.55-1.45,30.36c4.32-9.29,25.7-25.02,25.7-25.02c-14.92,13.98-30.72,38.55-31.06,41.42s5.21,2.1,5.85,0.54
		s3.05-7.83,6.16-11.87C274.85,88.51,288.49,84.5,296.66,73.85z"/>
</g>
<g>
	<path fill="white" d="M234.56,83.49c-9.37-11.33-42.45-16.17-42.45-16.17c2.17,6.12,3.27,12.61,3.24,19.15c0.13,10.96,0.91,21.15,6.12,27.5
		c8.05,9.67,20.2,12.79,29.27,8.18c-8.1-6.28-18.66-30.64-18.66-30.64c10.3,17.66,30.72,38.55,33.45,39.52
		c2.73,0.97,3.21-4.61,1.83-5.58c-1.38-0.97-6.96-4.72-10.2-8.66C243.99,108.02,243.12,93.83,234.56,83.49z"/>
</g>
<g>
	<path fill="white" d="M294.87,142.69c10.67-10.13,13.24-43.45,13.24-43.45c-5.96,2.58-12.36,4.12-18.89,4.54c-10.92,0.88-21.03,2.35-27.02,7.98
		c-9.09,8.69-11.38,21.03-6.17,29.76c5.72-8.5,29.29-20.7,29.29-20.7c-16.92,11.48-36.36,33.28-37.14,36.07
		c-0.78,2.79,4.82,2.89,5.69,1.44c0.87-1.44,4.24-7.26,7.94-10.77C271.04,153.77,285.14,151.94,294.87,142.69z"/>
</g>
</svg>
